<svg version="1.1" xmlns="http://www.w3.org/2000/svg" viewBox="0 0 926.3926241265497 521.9787234042551">
  <!-- svg-source:excalidraw -->
  <defs>
    <style>
      @font-face {
        font-family: "Virgil";
        src: url("https://excalidraw.com/FG_Virgil.woff2");
      }
      @font-face {
        font-family: "Cascadia";
        src: url("https://excalidraw.com/Cascadia.woff2");
      }
    </style>
  </defs>
  <rect x="0" y="0" width="926.3926241265497" height="521.9787234042551" fill="#ffffff"></rect><g><g transform="translate(10.723404255319792 437.1702127659574) rotate(0 453.57663687843433 0.10657219732965473)"><path d="M1.8518437288701532 -2.4513637088239193 C152.69474567888795 -2.258993975020263, 754.3245512077519 -1.6269484812856394, 905.66921987123 -0.653553305994353 M1.4840538856387138 2.52511366635561 C152.75225302759424 3.224902094655421, 752.9761264749177 1.2561062171716808, 904.0885971622835 1.5876631391238356" style="stroke: rgb(0, 0, 0); stroke-width: 4px; fill: none;"></path></g><g transform="translate(10.723404255319792 437.1702127659574) rotate(0 453.57663687843433 0.10657219732965473)"><path d="M872.4041815294772 9.331661072330505 C881.1362899388464 11.72149706028462, 895.981911962113 1.6190412166810724, 901.6709421338807 2.96178710730783 M876.2357914901227 12.976071388231546 C885.5252598164326 7.540837846221116, 894.5219946760448 5.017429331814776, 902.9083332443903 1.06808251785151" style="stroke: rgb(0, 0, 0); stroke-width: 4px; fill: none;"></path></g><g transform="translate(10.723404255319792 437.1702127659574) rotate(0 453.57663687843433 0.10657219732965473)"><path d="M872.3875776921866 -11.189540810074565 C880.8600468500481 -2.1951696341656, 895.7110128231922 -5.692870663300283, 901.6709421338807 2.96178710730783 M876.219187652832 -7.545130494173524 C885.1955588888426 -5.624462718548231, 894.198245422245 -0.7920114246380621, 902.9083332443903 1.06808251785151" style="stroke: rgb(0, 0, 0); stroke-width: 4px; fill: none;"></path></g></g><g transform="translate(844.7340425531931 467.97872340425516) rotate(0 34 22)"><text x="0" y="32" font-family="Virgil" font-size="28px" fill="#000000">Time</text></g><g><g transform="translate(60.72340425532002 266.95744680851067) rotate(0 0.22301609874756423 80.41853095694108)"><path d="M-1.254111673682928 -1.2246003486216068 C-0.8242329036460205 25.979749237344407, -0.252221557133339 134.17775462193163, -0.14725810081713453 162.06166226250377 M0.3799807432293889 -0.6695435741543769 C-0.03901889103312178 26.672018741265674, 2.0843419411947903 133.63438241906834, 1.6383022068346236 160.36327292052354" style="stroke: rgb(54, 79, 199); stroke-width: 4px; fill: none;"></path></g><g transform="translate(60.72340425532002 266.95744680851067) rotate(0 0.22301609874756423 80.41853095694108)"><path d="M-10.476709857305975 133.52031319907388 C-9.387012910754153 138.6359734475588, -1.5478648403560875 147.55717877308425, -1.7747542487179544 160.71510694203224 M-9.297849248817654 130.30074553883156 C-3.70249703889513 139.29881095546938, -1.9758256160346734 147.22825883343944, -0.2510510870909002 159.39042184156622" style="stroke: rgb(54, 79, 199); stroke-width: 4px; fill: none;"></path></g><g transform="translate(60.72340425532002 266.95744680851067) rotate(0 0.22301609874756423 80.41853095694108)"><path d="M10.044356262899873 133.4438431004777 C6.975358670157068 138.391171528948, 10.656448233250707 147.32787152430004, -1.7747542487179544 160.71510694203224 M11.223216871388194 130.22427544023537 C10.981255597461514 138.91476073020198, 6.869656905454218 146.86596445110436, -0.2510510870909002 159.39042184156622" style="stroke: rgb(54, 79, 199); stroke-width: 4px; fill: none;"></path></g></g><g transform="translate(-118.49999999999994 218.3617021276595) rotate(270 150.49999999999997 22)"><text x="0" y="32" font-family="Virgil" font-size="28px" fill="#364fc7">User looks for London</text></g><g transform="translate(280.01063829787347 231.5531914893616) rotate(270 140.50000000000006 22)"><text x="0" y="32" font-family="Virgil" font-size="28px" fill="#364fc7">User looks for Paris</text></g><g><g transform="translate(450.40425531914934 263.76595744680844) rotate(0 -0.006785229374713708 80.68891625552101)"><path d="M2.020399186760187 2.6891441009938717 C2.076800783945532 30.043549635853115, -1.2446031934350155 135.19045537037522, -1.3889307120537069 162.08304526192393 M2.9133576276898383 -2.593953783810139 C1.8970423195992028 24.84271717418804, -2.75017424075101 135.98376371331884, -2.926928086439302 163.97178629485217" style="stroke: rgb(54, 79, 199); stroke-width: 4px; fill: none;"></path></g><g transform="translate(450.40425531914934 263.76595744680844) rotate(0 -0.006785229374713708 80.68891625552101)"><path d="M-8.592683214614762 135.05371790399963 C-13.07926293297196 145.33065697974877, -8.011223549492478 151.87855212910762, -3.5271498023068215 166.66933965382424 M-11.08401007942356 136.21462671851927 C-10.664359714094951 144.18448183323363, -8.226231552207313 151.16408521232214, -1.023624958703449 162.31706523222175" style="stroke: rgb(54, 79, 199); stroke-width: 4px; fill: none;"></path></g><g transform="translate(450.40425531914934 263.76595744680844) rotate(0 -0.006785229374713708 80.68891625552101)"><path d="M11.92126968112785 135.59937253569694 C2.5539888893871954 146.04232257844163, 2.7333630273563543 152.4601831680261, -3.5271498023068215 166.66933965382424 M9.429942816319052 136.7602813502166 C4.931878780009789 144.61268996675238, 2.447586020739796 151.4613609122702, -1.023624958703449 162.31706523222175" style="stroke: rgb(54, 79, 199); stroke-width: 4px; fill: none;"></path></g></g><g><g transform="translate(242.63829787233988 265.8936170212766) rotate(0 0.24664982418175896 79.44003430089575)"><path d="M-0.48329399600625056 0.515518782287836 C-1.2174806982542958 27.515455701297267, -2.957806766165239 136.07412944309783, -2.856689971098831 163.07585189474074 M3.025013863742352 -4.1957832929492 C3.0852740828428784 22.458160709635166, 3.630454888062734 135.17244068153573, 3.1608362619484165 162.76464731839744" style="stroke: rgb(217, 72, 15); stroke-width: 4px; fill: none;"></path></g><g transform="translate(242.63829787233988 265.8936170212766) rotate(0 0.24664982418175896 79.44003430089575)"><path d="M-6.239763616837463 131.96797780758476 C-4.234506820879123 146.29233556994603, -1.418512133988373 157.22028715571747, 5.7913763572180965 165.56558608112184 M-6.387732032008371 133.38460909268593 C-3.2357005807716623 141.20803190254284, -3.309908081011095 144.70605713332074, 1.729460240593026 160.81272047234026" style="stroke: rgb(217, 72, 15); stroke-width: 4px; fill: none;"></path></g><g transform="translate(242.63829787233988 265.8936170212766) rotate(0 0.24664982418175896 79.44003430089575)"><path d="M14.281248217844196 132.05784252087594 C8.99467652210619 146.2794306691742, 4.519533539690559 157.17545322525172, 5.7913763572180965 165.56558608112184 M14.133279802673288 133.4744738059771 C13.120345410211932 141.1784719958222, 8.882929697771015 144.65826588813712, 1.729460240593026 160.81272047234026" style="stroke: rgb(217, 72, 15); stroke-width: 4px; fill: none;"></path></g></g><g transform="translate(19.19148936170336 179) rotate(270 191 22)"><text x="0" y="32" font-family="Virgil" font-size="28px" fill="#c92a2a">Receives results for London</text></g><g><g transform="translate(652.8404255319153 259.79787234042595) rotate(0 -1.6459060751694778 83.8065689006321)"><path d="M0.029509494453668683 2.0528067730367185 C-0.7363062138622882 29.222325121209764, -1.727705817056638 138.41037719769153, -2.0280885318016315 165.2959282098457 M1.557214381992817 0.2954331752657895 C0.4472571061287438 27.700677741662407, -4.008923687619907 140.00921390481662, -4.849026532331637 167.3177046259984" style="stroke: rgb(217, 72, 15); stroke-width: 4px; fill: none;"></path></g><g transform="translate(652.8404255319153 259.79787234042595) rotate(0 -1.6459060751694778 83.8065689006321)"><path d="M-11.157124318292714 137.3988212198316 C-7.9113308593594756 148.94043556626104, -7.048898161579245 162.8086665666997, -2.17658465490692 168.75956979451027 M-15.209878061076976 138.92290328073491 C-12.694818935171451 147.7002430605976, -10.084525441333172 154.42936950113966, -6.36655913800948 166.50129595083442" style="stroke: rgb(217, 72, 15); stroke-width: 4px; fill: none;"></path></g><g transform="translate(652.8404255319153 259.79787234042595) rotate(0 -1.6459060751694778 83.8065689006321)"><path d="M9.350823444386217 138.13643965037096 C4.552229101916828 149.3934724900983, -2.6177195856644646 162.9727992754723, -2.17658465490692 168.75956979451027 M5.298069701601955 139.66052171127427 C1.5334222313604466 148.54268912354655, -2.1489169398483137 155.04548566096688, -6.36655913800948 166.50129595083442" style="stroke: rgb(217, 72, 15); stroke-width: 4px; fill: none;"></path></g></g><g transform="translate(439.39361702127917 187.7978723404259) rotate(270 181 22)"><text x="0" y="32" font-family="Virgil" font-size="28px" fill="#c92a2a">Receives results for Paris</text></g><g><g transform="translate(83.87234042553291 427.21276595744683) rotate(0 -1.1944843441945636 -39.265762645939844)"><path d="M-1.746692206710577 -0.9795101262629031 C-2.2172193258736645 -13.737341658660068, -0.4715179680457291 -62.49348092371372, -0.06947504936701976 -74.8896824614006 M-2.882675211131573 -2.415116532146931 C-3.02255472344499 -15.73565115743706, 0.03932730702851428 -64.89454114823687, 0.49370652274244087 -77.55201516561684" style="stroke: rgb(134, 46, 156); stroke-width: 4px; fill: none;"></path></g><g transform="translate(83.87234042553291 427.21276595744683) rotate(0 -1.1944843441945636 -39.265762645939844)"><path d="M7.9471445992792695 -50.50695004481014 C6.3981443464964345 -60.985560553559516, 2.2044960199837824 -70.60058531743229, 2.689255213597944 -80.22115887962755 M8.781523620357618 -50.19722357186612 C6.985247885275106 -56.33139299982859, 6.6452778396946925 -60.97997875191129, 1.939075390109947 -76.1514184687334" style="stroke: rgb(134, 46, 156); stroke-width: 4px; fill: none;"></path></g><g transform="translate(83.87234042553291 427.21276595744683) rotate(0 -1.1944843441945636 -39.265762645939844)"><path d="M-12.548913053737252 -51.522638515780585 C-5.921367345576407 -61.34093713863962, -1.950493335013606 -70.551366474985, 2.689255213597944 -80.22115887962755 M-11.714534032658904 -51.212912042836564 C-8.510515184961275 -56.90747186677168, -3.847509779119065 -61.30813362427047, 1.939075390109947 -76.1514184687334" style="stroke: rgb(134, 46, 156); stroke-width: 4px; fill: none;"></path></g></g><g transform="translate(-28.968085106381977 263.0425531914894) rotate(270 136.5 22)"><text x="0" y="32" font-family="Virgil" font-size="28px" fill="#862e9c">API call for London</text></g><g><g transform="translate(469.8085106382987 424.377659574468) rotate(0 -0.8064369682440429 -36.70371682014556)"><path d="M0.08077869191765785 1.6682375572621817 C0.018949845459648396 -10.681938894975481, 0.6385390918780784 -62.52914134158837, 0.5589563900326993 -75.07567119755325 M1.654311034977436 -4.272030604183674 C0.469799259480425 -17.11654136472771, -3.767819137292165 -61.10055495171891, -3.245464762886832 -72.84914377622779" style="stroke: rgb(134, 46, 156); stroke-width: 4px; fill: none;"></path></g><g transform="translate(469.8085106382987 424.377659574468) rotate(0 -0.8064369682440429 -36.70371682014556)"><path d="M10.361213577639816 -45.74893473802274 C5.0836771311162146 -56.37814409207499, 3.4363518058157103 -59.9865236872499, 0.6600174473320743 -71.31737429939683 M9.702372388642786 -44.67196881367033 C5.149819481119504 -51.919619874299045, 3.7776708924469213 -57.17963600170404, -4.580311754932473 -71.24829681136187" style="stroke: rgb(134, 46, 156); stroke-width: 4px; fill: none;"></path></g><g transform="translate(469.8085106382987 424.377659574468) rotate(0 -0.8064369682440429 -36.70371682014556)"><path d="M-10.14787004543846 -45.04360408689382 C-8.586628331810191 -55.91967146297116, -3.4000856688018803 -59.763075530546146, 0.6600174473320743 -71.31737429939683 M-10.80671123443549 -43.966638162541415 C-11.220602420668715 -51.61086622660906, -8.468160943287087 -57.0127316852858, -4.580311754932473 -71.24829681136187" style="stroke: rgb(134, 46, 156); stroke-width: 4px; fill: none;"></path></g></g><g transform="translate(366.968085106384 268.2074468085109) rotate(270 126.5 22)"><text x="0" y="32" font-family="Virgil" font-size="28px" fill="#862e9c">API call for Paris</text></g></svg>